<svg xmlns="http://www.w3.org/2000/svg" viewBox="0 0 1031.02 1077.98"><defs><style>.cls-1{fill:#fff;}</style></defs><g id="Layer_2" data-name="Layer 2"><g id="Layer_1-2" data-name="Layer 1"><path class="cls-1" d="M0,1078v-34H65.76V0h576.4V206.65h323v837.08H1031V1078Zm102.73-35.23H382.17V719.61H550V1042.8h55.61V35.39H102.73ZM643.26,243.36v799.55H928.42V243.36ZM418.69,1042.64h93.79V754.92H418.69Z"/><path class="cls-1" d="M166.6,882.93V719H332.25v164Zm35.89-35.74H296V754.68H202.49Z"/><path class="cls-1" d="M162.67,669.26V505.66H328.55v163.6Zm36-35.53h93.89V541.21H198.69Z"/><path class="cls-1" d="M378.73,669.33V505.6h166V669.33Zm36.16-35.89h93.53V541H414.89Z"/><path class="cls-1" d="M162.64,455.65V291.93h166V455.65Zm36.49-128.49v92.91h93.51V327.16Z"/><path class="cls-1" d="M378.76,291.56H544.65v164H378.76Zm36.12,35.58V420h93.73V327.14Z"/><path class="cls-1" d="M328.56,241.89H162.66V78.29h165.9Zm-36-35.48V113.68H199.08v92.73Z"/><path class="cls-1" d="M378.77,77.89H544.64v164H378.77Zm36.06,128.39h93.82V113.84H414.83Z"/><path class="cls-1" d="M872.6,719.27V882.61H707V719.27ZM835.85,847.4V754.55h-93V847.4Z"/><path class="cls-1" d="M702.87,669.33V505.6h166V669.33ZM739.21,541v92.41h93.35V541Z"/><path class="cls-1" d="M703,455.47V292.06H868.7V455.47ZM738.93,420h93.91V327.48H738.93Z"/></g></g></svg>