<svg id="Layer_1" data-name="Layer 1" xmlns="http://www.w3.org/2000/svg" viewBox="0 0 59.4 50"><defs><style>.cls-1{fill:#26387d;}</style></defs><path class="cls-1" d="M10.47,41.87a52.11,52.11,0,0,1,.3-5.6,11,11,0,0,1,10.47-9.21,89,89,0,0,1,9.24.11,10.94,10.94,0,0,1,9.74,10.44c.07,3,0,6.07,0,9.11a.68.68,0,0,1-.48.72,25.48,25.48,0,0,1-7,2c-7.41,1.2-14.62.22-21.73-2a.63.63,0,0,1-.52-.73c0-1.64,0-3.28,0-4.91Z" transform="translate(4.7 0)"/><path class="cls-1" d="M8.47,40.9A51.91,51.91,0,0,1-4.62,38.38c0-3.63-.21-7.19,0-10.72A10.82,10.82,0,0,1,5.55,18.11c2.84-.12,5.68,0,8.52,0a3.44,3.44,0,0,1,.53.06,11,11,0,0,0,3.29,7.35,13.61,13.61,0,0,0-7.57,5.94C8.54,34.32,8.29,37.53,8.47,40.9Z" transform="translate(4.7 0)"/><path class="cls-1" d="M54.69,38.17C51.58,40,45.55,41,42.39,40.91c0-.44,0-.88,0-1.32a15.19,15.19,0,0,0-.9-6.16,13.21,13.21,0,0,0-7.88-7.7c-.19-.08-.39-.14-.67-.24a11,11,0,0,0,3.29-7.35c3.51,0,7-.53,10.39.36A11,11,0,0,1,54.68,29C54.72,32,54.69,35.1,54.69,38.17Z" transform="translate(4.7 0)"/><path class="cls-1" d="M25.4,26.39a8.68,8.68,0,1,1,8.72-8.69A8.67,8.67,0,0,1,25.4,26.39Z" transform="translate(4.7 0)"/><path class="cls-1" d="M1.42,8.72A8.7,8.7,0,0,1,18.74,7.51c0,.15,0,.31,0,.45a1.87,1.87,0,0,1-.72,1.9,9.92,9.92,0,0,0-3.18,5.56,1.36,1.36,0,0,1-.81,1A8.7,8.7,0,0,1,1.42,8.72Z" transform="translate(4.7 0)"/><path class="cls-1" d="M48.55,8.67a8.71,8.71,0,0,1-11.67,8.22,1.09,1.09,0,0,1-.82-1,10.47,10.47,0,0,0-4.38-7,1,1,0,0,1-.5-1.06A8.76,8.76,0,0,1,38.38.13a8.68,8.68,0,0,1,10,7.2C48.51,7.77,48.51,8.22,48.55,8.67Z" transform="translate(4.7 0)"/></svg>