<svg xmlns="http://www.w3.org/2000/svg" viewBox="0 0 1029.89 1080"><defs><style>.cls-1{fill:#ed3556;}</style></defs><g id="Layer_2" data-name="Layer 2"><g id="Layer_1-2" data-name="Layer 1"><path class="cls-1" d="M373.61,77.6c-45.1,74.22-18.34,169.12,59.72,211.93a7.08,7.08,0,0,0,.9.47h-.15c53.21,28.85,53.21,87.68,0,116.53h.31c-.6.33-1.28.63-2,1l.13-.23c-52.88,29.38-106.41,0-106.13-58.27l-.12.17c.34-53.88-28.85-106.47-81.5-135.35C166.75,171.07,67,196.49,21.9,270.68s-18.34,169.09,59.76,212c52.57,28.88,115.11,26.59,164.08-.63l-.13.2c52.88-29.35,106.38,0,106.1,58.26l.1-.19c0,.69.08,1.42.08,2.12l-.18-.26c.28,58.23-53.22,87.61-106.1,58.23l.07.13c-.29-.16-.57-.39-.87-.53C166.75,557.1,67,582.6,21.9,656.79s-18.34,169.12,59.76,212,177.86,17.42,222.93-56.84a148.43,148.43,0,0,0,21.69-78.67l.22.33c-.35-58.27,53.18-87.65,106.06-58.27,0,0,.47.27.77.4l.81.4h-.06c52,28.25,52,85.69,0,113.91h.36a158.22,158.22,0,0,0-60.83,57.24c-45.1,74.19-18.34,169.09,59.72,211.93s177.88,17.45,223-56.77,18.33-169.12-59.73-212c-.33-.16-.62-.26-.93-.43h.16c-52-28.22-52-85.66,0-113.91h-.31c.61-.33,1.29-.63,1.91-1l-.08.2c52.9-29.38,106.43,0,106.06,58.27l.18-.27c-.31,54,28.87,106.57,81.51,135.45,78.06,42.85,177.93,17.42,223-56.84S1026.33,642.79,948.2,600c-52.63-29-115.11-26.62-164.08.63l.15-.23c-52.9,29.38-106.44,0-106.12-58.23l-.13.2c0-.74,0-1.43,0-2.17l.16.3c-.32-58.26,53.25-87.61,106.12-58.26v-.07a6.62,6.62,0,0,0,.78.5C863.11,525.49,963,500,1008,425.84s18.32-169.12-59.81-212-177.84-17.39-222.88,56.8a148.24,148.24,0,0,0-21.71,78.68l-.16-.3c.31,58.27-53.25,87.65-106.15,58.27l.08.1a8.7,8.7,0,0,1-.83-.5c-.33-.13-.62-.27-.9-.4h.13c-53.2-28.85-53.2-87.68,0-116.53h-.31a158.67,158.67,0,0,0,60.81-57.24c45.07-74.19,18.33-169.09-59.73-211.9S418.65,3.38,373.61,77.6"/></g></g></svg>