<svg xmlns="http://www.w3.org/2000/svg" viewBox="0 0 1077.8 1077.82"><defs><style>.cls-1{fill:#fff;}</style></defs><g id="Layer_2" data-name="Layer 2"><g id="Layer_1-2" data-name="Layer 1"><path class="cls-1" d="M215.34,464.1C307.11,639.8,438,770.7,614.51,862.84c2.36-3.87,4.33-9.05,7.89-12.65,38.51-38.88,77.54-77.25,115.86-116.32,20.08-20.47,43-27,70.21-18.15,67.24,21.75,136.32,31.65,206.85,33.11,39.06.81,62.32,25.07,62.39,64q.18,100.33,0,200.66c-.07,39.15-25.15,64.24-63.83,64.29-468.55.65-885-331.73-988.13-788.68C9.13,215.47.22,140.88,0,65.31-.12,25.18,24.42.15,64.22.08q100.34-.16,200.66,0C303.81.13,328.27,23.5,329,62.43c1.29,71,11.6,140.51,33.35,208.22,8.21,25.56,2.61,47.79-16.48,66.81-39.44,39.27-78.68,78.75-118.17,118C224.08,459,219.28,461.37,215.34,464.1Z"/></g></g></svg>