<svg xmlns="http://www.w3.org/2000/svg" viewBox="0 0 1364.64 934.1"><defs><style>.cls-1{opacity:0.2;}.cls-2{fill:#fff;}.cls-3{fill:#ff2c53;}</style></defs><g id="Layer_2" data-name="Layer 2"><g id="Layer_1-2" data-name="Layer 1"><g class="cls-1"><path class="cls-2" d="M99.32,510.83a37.41,37.41,0,1,0-13.69-51.11,37.4,37.4,0,0,0,13.69,51.11"/><path class="cls-2" d="M74.82,618.67A37.35,37.35,0,0,0,55.9,586.19h0c-12.2-7-12.2-21.15,0-28.11h0a37.41,37.41,0,1,0-37,0h0c12.2,7,12.2,21.14,0,28.11h0a37.4,37.4,0,1,0,55.9,32.48"/><path class="cls-2" d="M99.32,697a37.36,37.36,0,0,0,56.08-32.44l0,.07c0-13.89,12.18-20.82,24.13-13.74l0,0c.13.08.25.18.38.25a37.5,37.5,0,1,0-18.67-32.36l0-.06c0,13.88-12.18,20.82-24.13,13.74l0,.05-.39-.25c-.06,0-.13-.06-.2-.1h0c-11.92-6.81-11.92-20.66,0-27.46h-.08a37.38,37.38,0,1,0-37.16-.1l.2.1h0c11.92,6.8,11.92,20.65,0,27.46h.08A37.35,37.35,0,0,0,99.32,697"/><path class="cls-3" d="M74.82,804.22c0-.08,0-.14,0-.22v0c-.07-14,12.2-21.13,24.33-14l0,0,.19.13a37.41,37.41,0,1,0-.2-64.65l0,0c-12.13,7.08-24.41,0-24.33-14v0c0-.07,0-.15,0-.22a37.5,37.5,0,1,0-18.5,32.24l0,.06c12.13-7.08,24.41,0,24.33,14.05l0-.05c0,.17,0,.35,0,.52l0-.08c.08,14-12.2,21.13-24.32,14l0,.06a37.38,37.38,0,1,0,18.5,32.24"/><path class="cls-2" d="M74.82,896.68a37.41,37.41,0,1,0-37.41,37.41,37.41,37.41,0,0,0,37.41-37.41"/><path class="cls-2" d="M99.32,882.53a37.36,37.36,0,0,0,56.08-32.44l0,.07c0-13.88,12.18-20.82,24.13-13.74l0,0c.13.07.25.17.38.25a37.51,37.51,0,1,0-18.67-32.36l0-.07c0,13.88-12.18,20.82-24.13,13.74l0,.06c-.13-.08-.25-.18-.39-.26a37.41,37.41,0,0,0-37.41,64.79"/><path class="cls-2" d="M231,915.38a37.41,37.41,0,1,0-51.11,13.7A37.41,37.41,0,0,0,231,915.38"/><path class="cls-2" d="M246.86,367.27A37.4,37.4,0,1,0,298,353.58a37.38,37.38,0,0,0-51.1,13.69"/><path class="cls-3" d="M260.55,604.54a37.35,37.35,0,0,0,56.07-32.89l.05.08c-.16-14.2,12.2-21.43,24.5-14.34h0a37.41,37.41,0,0,0,37.39-64.8l-.2-.11h0c-11.93-6.8-11.93-20.66,0-27.46h-.08c.21-.12.42-.22.63-.35l0,0c11.94-7.07,24.12-.14,24.13,13.75l0-.07a37.39,37.39,0,1,0,18.29-32.11l0,0c-12,7.08-24.13.14-24.13-13.74l0,.05a37.39,37.39,0,1,0-56.08,32.37l.19.1h0c11.92,6.8,11.92,20.66,0,27.46h.08a37.2,37.2,0,0,0-18.92,33l0-.08c.15,14.19-12.21,21.42-24.51,14.33l0,0h0a37.35,37.35,0,0,0-37.43,0l0-.06c-12.3,7.09-24.66-.14-24.51-14.33l0,0c0-.24,0-.49,0-.73l.05.08c-.08-14,12.19-21.13,24.32-14l0,0,.19.12a37.5,37.5,0,1,0-18.67-32.13l0-.07c.07,14-12.2,21.12-24.33,14l0,0a.8.8,0,0,0-.19-.13,37.41,37.41,0,1,0,0,64.74l0,.07c12.3-7.09,24.66.14,24.51,14.34l0-.05a37.37,37.37,0,0,0,18.69,32.86"/><path class="cls-3" d="M341.16,651.08a37.36,37.36,0,0,0,37.8-.25l0,0c11.95-7.07,24.12-.13,24.13,13.75l0-.06a37.39,37.39,0,1,0,18.29-32.12l0,0c-11.94,7.08-24.12.15-24.13-13.74l0,.06a37.39,37.39,0,1,0-56.08,32.36"/><path class="cls-2" d="M246.86,645.89A37.41,37.41,0,1,0,298,632.2a37.39,37.39,0,0,0-51.1,13.69"/><path class="cls-3" d="M260.55,790.08a37.41,37.41,0,1,0-.2-64.65l0,0c-12.12,7.08-24.39,0-24.32-14l0,0a37.41,37.41,0,1,0-18.47,32l0,.05c12.13-7.08,24.4,0,24.33,14l0,0a37.35,37.35,0,0,0,18.68,32.64"/><path class="cls-2" d="M341.16,836.63a37.41,37.41,0,0,0,37.4-64.81l-.2-.1h0c-12.2-7-12.2-21.13,0-28.08h-.09a37.38,37.38,0,1,0-37.15-.1l.19.1h0c12.19,7,12.19,21.12,0,28.08h.08a37.37,37.37,0,0,0-.25,64.91"/><path class="cls-2" d="M392.26,915.38a37.39,37.39,0,0,0-51.3-51l0,0c-12.13,7.08-24.4,0-24.33-14l0,.06a37.4,37.4,0,1,0-18.48,32l0,.05c12.13-7.09,24.41,0,24.33,14l0,0a37.39,37.39,0,0,0,69.78,18.94"/><path class="cls-2" d="M472.87,404.67a37.4,37.4,0,1,0-51.1,13.69,37.4,37.4,0,0,0,51.1-13.69"/><path class="cls-2" d="M502.38,557.38a37.41,37.41,0,1,0-13.69-51.11,37.42,37.42,0,0,0,13.69,51.11"/><path class="cls-3" d="M408.09,831.43a37.4,37.4,0,1,0,69.76,18.66l0,.07c0-13.88,12.18-20.82,24.13-13.74l0,0,.38.25a37.42,37.42,0,1,0-.2-64.66l0-.05c-12.12,7.08-24.4,0-24.32-14l0,0a37.41,37.41,0,1,0-18.48,32l0,.05c12.13-7.08,24.4,0,24.32,14l0-.06v.3l0-.07c0,13.88-12.18,20.82-24.13,13.74l0,0c-.13-.07-.25-.17-.39-.25a37.38,37.38,0,0,0-51.09,13.69"/><path class="cls-2" d="M553.49,915.38a37.41,37.41,0,1,0-51.11,13.7,37.4,37.4,0,0,0,51.11-13.7"/><path class="cls-2" d="M701,214.57a37.41,37.41,0,1,0,.38,64.55l0,0c12-7.07,24.13-.14,24.13,13.75l0-.07a37.4,37.4,0,1,0,18.29-32.1l0-.05c-11.94,7.08-24.12.14-24.13-13.74l0,.06A37.37,37.37,0,0,0,701,214.57"/><path class="cls-2" d="M663.61,371.82a37.41,37.41,0,1,0-.2-64.65l0-.05c-12.12,7.09-24.4,0-24.32-14l0,.06A37.4,37.4,0,1,0,583,325.29l.2.1h0c12.2,6.95,12.2,21.12,0,28.08h.09c-.15.09-.31.16-.45.25l0-.05c-12.12,7.08-24.39,0-24.32-14.05l0,.06a37.4,37.4,0,1,0-56.09,32.14l.21.11h0c12.2,7,12.2,21.13,0,28.08h.08a37.39,37.39,0,1,0,37.16.1l-.2-.1h0c-12.2-6.95-12.2-21.12,0-28.08h-.08c.15-.09.3-.16.44-.25l0,.05c12.12-7.08,24.39,0,24.32,14l0,0a37.39,37.39,0,1,0,56.09-32.14l-.21-.11h0c-12.2-7-12.2-21.13,0-28.08h-.09l.46-.26,0,.06c12.12-7.09,24.39,0,24.32,14l0-.05a37.38,37.38,0,0,0,18.68,32.64"/><path class="cls-3" d="M714.71,451.21a37.4,37.4,0,1,0-51.1,13.7,37.4,37.4,0,0,0,51.1-13.7"/><path class="cls-3" d="M620.41,446A37.41,37.41,0,0,0,583,510.83l.2.1h0c12.47,7.11,12.47,21.59,0,28.71h.08a37.38,37.38,0,1,0,37.37,64.75l0,.06c12.12-7.09,24.39,0,24.32,14l0,0a37.41,37.41,0,1,0,18.48-32l0,0c-12.13,7.08-24.4,0-24.32-14l0,0a37.36,37.36,0,0,0-18.67-32.64l-.23-.11h.06c-12.47-7.12-12.47-21.6,0-28.71h-.09a37.37,37.37,0,0,0,.26-64.9"/><path class="cls-2" d="M701,492.58a37.41,37.41,0,1,0,0,64.75l0,.06c12.3-7.09,24.66.15,24.51,14.34l0-.05a37.38,37.38,0,0,0,18.69,32.86l.2.11h0c11.93,6.8,11.93,20.65,0,27.46h.09a37.16,37.16,0,0,0-18.92,32.76l0-.08c.07,14.05-12.2,21.13-24.33,14.05l0,0-.19-.13a37.36,37.36,0,0,0-56.08,32.66l0-.07c.07,14-12.2,21.13-24.32,14l0,0-.19-.12a37.41,37.41,0,1,0,.19,64.64l0,.05c12.13-7.08,24.4,0,24.33,14l0-.06a37.41,37.41,0,1,0,18.47-32l0-.05c-12.13,7.08-24.4,0-24.33-14l0,0c0-.17,0-.35,0-.52l0,.08c-.07-14,12.2-21.13,24.33-14v0l.18.12a37.37,37.37,0,0,0,56.08-32.66l0,.07c-.07-14.05,12.2-21.14,24.33-14.05l0,0a1.22,1.22,0,0,0,.19.12,37.4,37.4,0,1,0,37.41-64.78l-.2-.1h0c-11.92-6.81-11.92-20.66,0-27.46h-.08a37.38,37.38,0,1,0-37.18-64.86l0-.06c-12.3,7.09-24.66-.14-24.51-14.34l0,0A37.38,37.38,0,0,0,701,492.58"/><path class="cls-3" d="M583,697a37.41,37.41,0,1,0-13.68-51.1A37.41,37.41,0,0,0,583,697"/><path class="cls-2" d="M583,882.53a37.41,37.41,0,1,0-13.68-51.1A37.4,37.4,0,0,0,583,882.53"/><path class="cls-2" d="M714.71,915.38a37.4,37.4,0,1,0-51.1,13.7,37.4,37.4,0,0,0,51.1-13.7"/><path class="cls-2" d="M875.94,172a37.41,37.41,0,1,0-51.1,13.69A37.41,37.41,0,0,0,875.94,172"/><path class="cls-2" d="M824.84,279.37a37.41,37.41,0,1,0-13.69-51.09,37.41,37.41,0,0,0,13.69,51.09"/><path class="cls-2" d="M811.15,506.28a37.41,37.41,0,1,0,69.77,18.43l0,.08c-.07-14,12.2-21.13,24.32-14v0a1.22,1.22,0,0,0,.19.12,37.49,37.49,0,1,0-18.67-32.12l0-.08c.08,14-12.19,21.13-24.32,14.05l0,0-.19-.13a37.4,37.4,0,0,0-51.1,13.7"/><path class="cls-2" d="M730.54,739a37.41,37.41,0,1,0,51.1-13.68A37.42,37.42,0,0,0,730.54,739"/><path class="cls-3" d="M875.94,915.39a37.41,37.41,0,0,0-13.69-51.1l-.19-.1h0c-11.92-6.8-11.92-20.66,0-27.45H862A37.22,37.22,0,0,0,880.92,804l0,.08c-.07-14,12.2-21.13,24.32-14v0l.19.13a37.41,37.41,0,1,0,37.4-64.8l-.2-.1h0c-12.21-7-12.21-21.13,0-28.09h-.08a37.38,37.38,0,1,0-37.16-.11l.2.11h0c12.2,7,12.2,21.13,0,28.09h.08l-.45.25,0-.05c-12.12,7.08-24.39,0-24.32-14l0,0a37.39,37.39,0,0,0-18.68-32.65l-.19-.09h0c-11.92-6.81-11.92-20.66,0-27.46H862a37.38,37.38,0,1,0-37.16-.1l.19.1h0c11.92,6.8,11.92,20.65,0,27.46h.08a37.38,37.38,0,1,0,37.36,64.75l0,.05c12.13-7.09,24.4,0,24.33,14l0,0c0,.17,0,.34,0,.51l0-.07c.07,14-12.2,21.13-24.33,14l0,0-.19-.13a37.36,37.36,0,0,0-56.08,32.45l0-.07C806.12,818.09,794,825,782,818l0,0-.39-.25a37.5,37.5,0,1,0,18.67,32.35l0,.07c0-13.89,12.18-20.82,24.13-13.74l0,0,.39.26.19.1h0c11.92,6.79,11.92,20.65,0,27.45h.08a37.39,37.39,0,1,0,50.85,51.2"/><path class="cls-3" d="M942.86,260.49l-.2-.1h0c-11.93-6.8-11.93-20.66,0-27.45h-.09a37.38,37.38,0,1,0-37.15-.11c.06,0,.13.06.2.11h0c11.92,6.79,11.92,20.65,0,27.45h.09a37.36,37.36,0,0,0-.25,64.9l.19.1h0c12.2,7,12.2,21.13,0,28.09h.08l-.45.25,0-.05c-12.12,7.08-24.39,0-24.32-14.05l0,.05a37.4,37.4,0,1,0-56.09,32.15l.2.11h0c12.2,6.95,12.2,21.12,0,28.08h.08l-.45.25,0,0c-12.12,7.08-24.4,0-24.33-14.05l0,.05a37.4,37.4,0,1,0-56.09,32.15l.21.1h-.05c11.93,6.81,11.93,20.66,0,27.46h.09a37.39,37.39,0,1,0,37.16.11l-.21-.11h0c-11.92-6.8-11.92-20.65,0-27.46h-.08l.45-.24,0,0c12.13-7.09,24.4,0,24.33,14l0,0a37.4,37.4,0,1,0,56.09-32.16l-.2-.1h0c-12.19-7-12.19-21.13,0-28.08H862c.14-.09.29-.16.44-.24l0,0c12.13-7.09,24.4,0,24.33,14l0,0a37.4,37.4,0,1,0,56.09-32.15l-.21-.1h.05c-12.2-7-12.2-21.13,0-28.09h-.09a37.35,37.35,0,0,0,.25-64.9"/><path class="cls-3" d="M1023.47,307a37.4,37.4,0,1,0,13.7,51.1,37.4,37.4,0,0,0-13.7-51.1"/><path class="cls-2" d="M1037.17,543.68a37.4,37.4,0,1,0-51.1,13.7,37.4,37.4,0,0,0,51.1-13.7"/><path class="cls-3" d="M942.86,539.76a37.4,37.4,0,1,0,.21,64.64l0,.05c12.12-7.08,24.39,0,24.32,14l0,0a37.4,37.4,0,1,0,18.47-32l0-.06c-12.12,7.09-24.39,0-24.32-14l0,.06a37.34,37.34,0,0,0-18.68-32.64"/><path class="cls-2" d="M905.46,882.54a37.4,37.4,0,1,0-13.69-51.1,37.41,37.41,0,0,0,13.69,51.1"/><path class="cls-3" d="M1133.61,228.27a37.41,37.41,0,1,0,51.09-13.69,37.4,37.4,0,0,0-51.09,13.69"/><path class="cls-2" d="M1104.09,353.58a37.41,37.41,0,1,0,13.69,51.1,37.39,37.39,0,0,0-13.69-51.1"/><path class="cls-2" d="M1184.71,120.88A37.4,37.4,0,1,0,1198.4,172a37.39,37.39,0,0,0-13.69-51.09"/><path class="cls-2" d="M1104.09,446a37.36,37.36,0,0,0-37.8.24l0,0c-12,7.08-24.13.14-24.14-13.75l0,.06a37.4,37.4,0,1,0-18.29,32.12l0,0c11.94-7.07,24.12-.14,24.13,13.75l0-.07A37.4,37.4,0,1,0,1104.09,446"/><path class="cls-2" d="M1133.61,878a37.4,37.4,0,1,0,51.09-13.7,37.41,37.41,0,0,0-51.09,13.7"/><path class="cls-2" d="M1294.83,42.11a37,37,0,0,0-5,18.74l0-.06c0,13.89-12.19,20.82-24.14,13.75l0,0-.38-.25A37.5,37.5,0,1,0,1284,106.69l0,.06c0-13.89,12.19-20.82,24.14-13.75l0,0c.13.07.24.16.37.24a37.41,37.41,0,1,0-13.68-51.1"/><path class="cls-2" d="M1294.83,134.56a37.41,37.41,0,0,0,13.68,51.1c.07,0,.14.06.2.1h0c12.47,7.12,12.47,21.6,0,28.72h.08a37.38,37.38,0,1,0,37.15.1l-.2-.1h0c-12.47-7.12-12.47-21.6,0-28.72h-.08a37.39,37.39,0,1,0-50.85-51.2"/><path class="cls-3" d="M1279,404.68a37.4,37.4,0,1,0-69.77-18.43l0-.08c.07,14-12.2,21.13-24.32,14.05v0l-.19-.13a37.49,37.49,0,1,0,18.68,32.14l0,.06c-.07-14,12.2-21.13,24.32-14l0,0,.19.12A37.42,37.42,0,0,0,1279,404.68"/><path class="cls-2" d="M1294.83,600a37.4,37.4,0,1,0,51.09-13.7,37.41,37.41,0,0,0-51.09,13.7"/><path class="cls-3" d="M1265.32,632.21a37.37,37.37,0,0,0-56.08,32.66l0-.07c.07,14-12.2,21.13-24.32,14v0l-.19-.13a37.5,37.5,0,1,0,18.68,32.14l0,.07c-.07-14,12.2-21.13,24.33-14.05l0,0,.18.11a37.41,37.41,0,1,0,37.42-64.78"/><path class="cls-3" d="M1294.83,692.44a37.43,37.43,0,0,0,13.68,51.11l.2.1h0c12.19,7,12.19,21.12,0,28.08h.08a37.18,37.18,0,0,0-18.92,32.54l0-.06c0,13.88-12.19,20.82-24.13,13.74l0,0-.38-.25a37.41,37.41,0,1,0,.19,64.65l0,.05c12.13-7.09,24.4,0,24.33,14l0,0a37.41,37.41,0,1,0,18.48-32l0-.06c-12.13,7.09-24.4,0-24.33-14l0,0v-.29l0,.07c0-13.89,12.19-20.82,24.14-13.74l0,0,.37.25a37.42,37.42,0,0,0,37.41-64.81l-.2-.1h0c-12.2-7-12.2-21.13,0-28.08h-.08a37.4,37.4,0,1,0-50.85-51.21"/><path class="cls-2" d="M502.55,678.64h.08a37.39,37.39,0,1,0,37.16.1l-.2-.1h0c-11.93-6.8-11.93-20.65,0-27.46h-.09a37.38,37.38,0,1,0-37.36-64.75l0,0c-12.12,7.08-24.39,0-24.32-14l0,0a37.41,37.41,0,1,0-18.48,32l0,.06c12.13-7.09,24.4,0,24.32,14l0-.06a37.38,37.38,0,0,0,18.67,32.65l.2.1h0c11.93,6.81,11.93,20.66,0,27.46"/><path class="cls-2" d="M1103.92,697.1h-.08a37.38,37.38,0,1,0-37.16-.11l.2.11h0c12.2,7,12.2,21.13,0,28.09h.08l-.45.25,0-.05c-12.13,7.08-24.4,0-24.33-14l0,0a37.41,37.41,0,1,0-18.48,32l0,.05c12.12-7.09,24.39,0,24.32,14l0,0c0,.17,0,.34,0,.52l0-.08c.07,14-12.2,21.13-24.32,14l0,0-.2-.13a37.41,37.41,0,0,0-37.4,64.81l.19.1h0c11.93,6.79,11.93,20.65,0,27.45h.09a37.38,37.38,0,1,0,37.15.1l-.19-.1h0c-11.92-6.8-11.92-20.66,0-27.45h-.09A37.2,37.2,0,0,0,1042.15,804l0,.08c-.08-14,12.2-21.13,24.32-14l0,0,.19.12.19.1h0c11.92,6.8,11.92,20.65,0,27.45h.08a37.39,37.39,0,1,0,37.16.11l-.21-.11h0c-11.93-6.8-11.93-20.65,0-27.45h-.08l.45-.24,0,0c12.12-7.08,24.4,0,24.32,14l0-.06a37.38,37.38,0,1,0,74.76,0l0,.08c-.08-14,12.19-21.13,24.31-14v0l.18.12A37.49,37.49,0,1,0,1209.24,758l0-.08c.07,14-12.2,21.13-24.32,14l0,0-.2-.13a37.35,37.35,0,0,0-37.61.15l0-.05c-12.12,7.08-24.4,0-24.32-14l0,0a37.36,37.36,0,0,0-18.68-32.63l-.2-.11h0c-12.2-7-12.2-21.13,0-28.09"/><path class="cls-2" d="M1184.54,557.49h-.08a37.38,37.38,0,1,0-37.17-.11l.2.11h0c12.47,7.11,12.47,21.59,0,28.7h.09c-.15.08-.31.16-.45.25l0-.05c-12.12,7.08-24.39,0-24.32-14l0,.06a37.41,37.41,0,1,0-18.48,32l0,.05c12.13-7.08,24.4,0,24.33,14l0-.06a37.4,37.4,0,1,0,56.08-32.15l-.2-.1h0c-12.47-7.11-12.47-21.59,0-28.7"/><path class="cls-3" d="M1265.15,510.94h-.08a37.38,37.38,0,1,0-37.17-.11l.2.11h0c12.47,7.11,12.47,21.59,0,28.7h.09a37.42,37.42,0,1,0,55.81,32l0,.08c-.15-14.19,12.21-21.42,24.51-14.33h0a37.52,37.52,0,1,0-18.67-31.91l0-.09c.16,14.2-12.21,21.43-24.51,14.34v0l-.21-.11h.05c-12.47-7.11-12.47-21.59,0-28.7"/><path class="cls-2" d="M1284,293.09l0,.06a37.38,37.38,0,1,0-74.75,0l0-.08c.08,14-12.19,21.12-24.31,14v0a1.22,1.22,0,0,0-.19-.12,37.37,37.37,0,0,0-37.61.14l0-.05c-12.12,7.08-24.39,0-24.32-14l0,.05a37.41,37.41,0,1,0-18.48,32l0,.05c12.13-7.09,24.4,0,24.33,14l0-.06a37.38,37.38,0,1,0,74.76,0l0,.07c-.07-14,12.2-21.13,24.32-14v0a1.88,1.88,0,0,0,.18.12,37.37,37.37,0,0,0,37.62-.15l0,.06c12.12-7.09,24.39,0,24.32,14l0-.05a37.4,37.4,0,0,0,18.67,32.64l.21.11h0c12.2,6.95,12.19,21.12,0,28.08h.07a37.39,37.39,0,1,0,37.16.1l-.2-.1h0c-12.2-7-12.2-21.13,0-28.08h-.08a37.38,37.38,0,1,0-37.36-64.76l0-.05c-12.13,7.08-24.4,0-24.32-14"/><path class="cls-2" d="M1284,200.32l0,.06a37.38,37.38,0,1,0-74.75,0l0-.08c.08,14-12.19,21.13-24.31,14v0a1.22,1.22,0,0,0-.19-.12,37.35,37.35,0,0,0-37.61.15l0-.06c-12.12,7.09-24.39,0-24.32-14l0,.05a37.41,37.41,0,1,0-18.48,32l0,.05c12.13-7.09,24.4,0,24.33,14l0-.05a37.38,37.38,0,1,0,74.76,0l0,.07c-.07-14,12.2-21.13,24.32-14v0l.18.12a37.41,37.41,0,0,0,37.62-.15l0,.05c12.12-7.09,24.39,0,24.32,14l0-.05a37.4,37.4,0,0,0,18.67,32.64l.21.11h0c12.2,6.95,12.19,21.12,0,28.08h.07a37.39,37.39,0,1,0,37.16.1l-.2-.1h0c-12.2-7-12.2-21.13,0-28.08h-.08a37.38,37.38,0,1,0-37.36-64.76l0,0c-12.13,7.09-24.4,0-24.32-14"/><path class="cls-2" d="M1103.92,139.22h-.08a37.37,37.37,0,1,0-37.16-.1,1.24,1.24,0,0,0,.2.1h0c12.47,7.12,12.47,21.6,0,28.71h.08A37.24,37.24,0,0,0,1048,200.71l0-.08c.07,14-12.2,21.13-24.32,14v0l-.19-.12-.2-.1h0c-12.47-7.12-12.47-21.6,0-28.72h-.08A37.38,37.38,0,1,0,985.87,121l0,0c-12.13,7.08-24.4,0-24.33-14l0,0a37.41,37.41,0,1,0-18.48,32l0,.06c12.13-7.09,24.4,0,24.33,14l0,0a37.32,37.32,0,0,0,18.68,32.63c.06,0,.13.06.2.1h0c12.48,7.12,12.48,21.6,0,28.72h.09a37.4,37.4,0,1,0,55.83,32.24l0,.06c-.07-14,12.2-21.13,24.33-14l0,0,.19.12a37.41,37.41,0,0,0,37.41-64.8l-.19-.1h0c-12.47-7.11-12.47-21.59,0-28.71"/><path class="cls-2" d="M824.67,0V0l.18.12"/></g></g></g></svg>