<svg id="Layer_1" data-name="Layer 1" xmlns="http://www.w3.org/2000/svg" viewBox="0 0 66.76 50"><defs><style>.cls-1{fill:#26387d;}</style></defs><path class="cls-1" d="M13.49,42.64a2,2,0,0,0-.36.17,3.1,3.1,0,0,1-3.93.33,3.35,3.35,0,0,1-1.37-4A7.37,7.37,0,0,0,8,38.4H8a3.16,3.16,0,0,1-3.43,1.06c-2.3-.85-2.71-2.68-2.17-4.74a1.66,1.66,0,0,1,.25-.42c.76-1.07,1.5-2.15,2.27-3.21a.49.49,0,0,0,0-.72c-1.09-1.43-2.15-2.88-3.24-4.32a.56.56,0,0,1-.08-.66C2,24.61,2.3,23.82,2.68,23l.57.74c1.19,1.56,2.39,3.12,3.57,4.7a.62.62,0,0,0,.69.3,5.22,5.22,0,0,1,.88-.07c2,0,2.94,1.19,3.19,3.06a3.57,3.57,0,0,1,0,1,1,1,0,0,0,.32.94.83.83,0,0,0,.7.3A3.31,3.31,0,0,1,16.26,37a1.47,1.47,0,0,0,.51,1,1.43,1.43,0,0,0,1.27.41,3.07,3.07,0,0,1,3.09,2.76.86.86,0,0,0,.41.72c.25.17.48.4.74.56a8.62,8.62,0,0,0,1.24.65,2,2,0,0,1,1.35,1.25.22.22,0,0,0,.06.13c.76.53,1.35,1.35,2.38,1.45a1.59,1.59,0,0,0,1.9-1.41.6.6,0,0,0-.27-.66c-1.76-1.38-3.52-2.78-5.27-4.18A1.2,1.2,0,0,1,23.26,38a1.34,1.34,0,0,1,1.81-.1c2.72,2,5.47,4,8.15,6A2,2,0,0,0,36,43.64a2.13,2.13,0,0,0-.44-3L29,35.76l-2.63-2a1.3,1.3,0,0,1-.23-1.67,1.21,1.21,0,0,1,1.58-.19l10.78,7.91a1.91,1.91,0,0,0,2.4.05,2.3,2.3,0,0,0,.35-2.8,1.88,1.88,0,0,0-.35-.34L29,27.7a1.33,1.33,0,0,1-.35-1.76,1.34,1.34,0,0,1,1.75-.09L34,28.51l8.84,6.56a2.23,2.23,0,0,0,2.93-.38,2.66,2.66,0,0,0-.24-3.76c-6-5.48-12-11-18.1-16.41a3.32,3.32,0,0,0-3.37-.37,4,4,0,0,0-2.17,1.9,1.14,1.14,0,0,0-.12.41A7.57,7.57,0,0,1,15.54,23a4.23,4.23,0,0,1-3.33-1.36,1.76,1.76,0,0,1-.11-1.87,9.27,9.27,0,0,0,1.07-4.49A9.17,9.17,0,0,1,14.86,10c0-.05.06-.11.13-.22H8.43L8.91,8.7c.26-.57.55-1.12.77-1.7a.6.6,0,0,1,.67-.41h9a2,2,0,0,0,.87-.22,14.29,14.29,0,0,1,6-1.95,17,17,0,0,1,5.9.82,21.7,21.7,0,0,0,7.53,1.44c.13,0,.34.21.41.36,1.47,3.14,2.92,6.29,4.38,9.44s2.79,6,4.19,9a.93.93,0,0,1,0,.87c-.37.84-.71,1.69-1.09,2.53a.64.64,0,0,0,.08.74,5.21,5.21,0,0,1,.43,5.9,4.57,4.57,0,0,1-3.74,2.29l-.39,0a4.39,4.39,0,0,1-5.23,4.8,4.09,4.09,0,0,1-2.67,3.85c-1.71.68-3.24,0-4.71-.9a4,4,0,0,1-2.76,2.58,4.05,4.05,0,0,1-3.7-.66c-.26.35-.48.71-.76,1A3.25,3.25,0,0,1,21.62,50a3,3,0,0,1-2.71-3.63c.05-.22.08-.45.13-.67l0,0h0l0,0a4.68,4.68,0,0,1-2.31,1.8C15.16,48.05,12.53,46.2,13,44a12.47,12.47,0,0,1,.5-1.41v0Z" transform="translate(8.46)"/><path class="cls-1" d="M58.3,22a1.84,1.84,0,0,1-1,1.84q-2,1-4.11,2c-.77.35-1.65-.15-2.1-1.13-.76-1.63-1.5-3.27-2.27-4.9l-6.57-14c-.21-.43-.44-.84-.66-1.26a1.62,1.62,0,0,1,.73-2.36L46.07.33A1.56,1.56,0,0,1,48.34,1a9.63,9.63,0,0,1,.52,1l9,18.91C58.06,21.31,58.2,21.78,58.3,22Z" transform="translate(8.46)"/><path class="cls-1" d="M-8.46,22.29A12.06,12.06,0,0,1-8,21.05Q-3.67,11.66.71,2.28c.18-.39.33-.79.49-1.18A1.5,1.5,0,0,1,3.46.23C4.69.84,5.91,1.47,7.13,2.09a1.69,1.69,0,0,1,1,2.27,4.53,4.53,0,0,1-.28.69Q3.35,14.79-1.13,24.53a5.2,5.2,0,0,1-.26.53,1.63,1.63,0,0,1-2.29.78c-1.37-.67-2.7-1.41-4-2.14A1.62,1.62,0,0,1-8.46,22.29Z" transform="translate(8.46)"/><path class="cls-1" d="M8,38.4H8Z" transform="translate(8.46)"/><path class="cls-1" d="M13.49,42.64v0Z" transform="translate(8.46)"/><path class="cls-1" d="M19.06,45.69l0,0h0l0,0Z" transform="translate(8.46)"/></svg>